<mxfile host="Electron" agent="Mozilla/5.0 (X11; Linux x86_64) AppleWebKit/537.36 (KHTML, like Gecko) draw.io/26.0.9 Chrome/128.0.6613.186 Electron/32.3.1 Safari/537.36" version="26.0.9">
  <diagram name="Page-1" id="_xgCGQCrOBgpzRIFNYbS">
    <mxGraphModel dx="997" dy="583" grid="1" gridSize="10" guides="1" tooltips="1" connect="1" arrows="1" fold="1" page="1" pageScale="1" pageWidth="850" pageHeight="1100" math="1" shadow="0">
      <root>
        <mxCell id="0" />
        <mxCell id="1" parent="0" />
        <mxCell id="1GW1taVRN_NtOBX0cRz3-8" style="edgeStyle=orthogonalEdgeStyle;rounded=0;orthogonalLoop=1;jettySize=auto;html=1;exitX=1;exitY=0.5;exitDx=0;exitDy=0;exitPerimeter=0;entryX=0;entryY=0.5;entryDx=0;entryDy=0;strokeWidth=2;endArrow=blockThin;endFill=1;" edge="1" parent="1" source="1GW1taVRN_NtOBX0cRz3-4" target="1GW1taVRN_NtOBX0cRz3-7">
          <mxGeometry relative="1" as="geometry" />
        </mxCell>
        <mxCell id="1GW1taVRN_NtOBX0cRz3-4" value="" style="verticalLabelPosition=bottom;shadow=0;dashed=0;align=center;html=1;verticalAlign=top;shape=mxgraph.electrical.abstract.sum;strokeWidth=2;fillColor=none;" vertex="1" parent="1">
          <mxGeometry x="360" y="380" width="40" height="40" as="geometry" />
        </mxCell>
        <mxCell id="1GW1taVRN_NtOBX0cRz3-5" value="" style="edgeStyle=none;orthogonalLoop=1;jettySize=auto;html=1;rounded=0;entryX=0;entryY=0.5;entryDx=0;entryDy=0;entryPerimeter=0;strokeWidth=2;endArrow=blockThin;endFill=1;" edge="1" parent="1" source="1GW1taVRN_NtOBX0cRz3-12" target="1GW1taVRN_NtOBX0cRz3-4">
          <mxGeometry width="100" relative="1" as="geometry">
            <mxPoint x="200" y="400" as="sourcePoint" />
            <mxPoint x="110" y="390" as="targetPoint" />
            <Array as="points" />
          </mxGeometry>
        </mxCell>
        <mxCell id="1GW1taVRN_NtOBX0cRz3-18" style="edgeStyle=orthogonalEdgeStyle;rounded=0;orthogonalLoop=1;jettySize=auto;html=1;entryX=0;entryY=0.5;entryDx=0;entryDy=0;strokeWidth=2;endArrow=blockThin;endFill=1;" edge="1" parent="1" source="1GW1taVRN_NtOBX0cRz3-7" target="1GW1taVRN_NtOBX0cRz3-17">
          <mxGeometry relative="1" as="geometry" />
        </mxCell>
        <mxCell id="1GW1taVRN_NtOBX0cRz3-7" value="&lt;font style=&quot;font-size: 16px;&quot;&gt;\(\int\)&lt;/font&gt;" style="whiteSpace=wrap;html=1;aspect=fixed;strokeWidth=2;fillColor=none;" vertex="1" parent="1">
          <mxGeometry x="440" y="380" width="40" height="40" as="geometry" />
        </mxCell>
        <mxCell id="1GW1taVRN_NtOBX0cRz3-9" value="&lt;font&gt;\(\mathbf{D}\)&lt;/font&gt;" style="whiteSpace=wrap;html=1;strokeWidth=2;fillColor=none;align=center;verticalAlign=middle;" vertex="1" parent="1">
          <mxGeometry x="440" y="320" width="40" height="40" as="geometry" />
        </mxCell>
        <mxCell id="1GW1taVRN_NtOBX0cRz3-10" value="" style="endArrow=blockThin;html=1;rounded=0;entryX=0;entryY=0.5;entryDx=0;entryDy=0;strokeWidth=2;endFill=1;" edge="1" parent="1" target="1GW1taVRN_NtOBX0cRz3-9">
          <mxGeometry width="50" height="50" relative="1" as="geometry">
            <mxPoint x="240" y="400" as="sourcePoint" />
            <mxPoint x="380" y="290" as="targetPoint" />
            <Array as="points">
              <mxPoint x="240" y="340" />
            </Array>
          </mxGeometry>
        </mxCell>
        <mxCell id="1GW1taVRN_NtOBX0cRz3-11" value="&lt;font style=&quot;font-size: 13px;&quot;&gt;\(\mathbf{x}&#39;(t)\)&lt;/font&gt;" style="text;html=1;align=center;verticalAlign=middle;resizable=0;points=[];autosize=1;strokeColor=none;fillColor=none;strokeWidth=1;" vertex="1" parent="1">
          <mxGeometry x="365" y="369" width="110" height="30" as="geometry" />
        </mxCell>
        <mxCell id="1GW1taVRN_NtOBX0cRz3-13" value="" style="edgeStyle=none;orthogonalLoop=1;jettySize=auto;html=1;rounded=0;entryX=0;entryY=0.5;entryDx=0;entryDy=0;entryPerimeter=0;strokeWidth=2;endArrow=blockThin;endFill=1;" edge="1" parent="1" target="1GW1taVRN_NtOBX0cRz3-12">
          <mxGeometry width="100" relative="1" as="geometry">
            <mxPoint x="200" y="400" as="sourcePoint" />
            <mxPoint x="320" y="400" as="targetPoint" />
            <Array as="points" />
          </mxGeometry>
        </mxCell>
        <mxCell id="1GW1taVRN_NtOBX0cRz3-12" value="\(\mathbf{B}\)" style="whiteSpace=wrap;html=1;strokeWidth=2;fillColor=none;" vertex="1" parent="1">
          <mxGeometry x="280" y="380" width="40" height="40" as="geometry" />
        </mxCell>
        <mxCell id="1GW1taVRN_NtOBX0cRz3-14" value="" style="ellipse;fillColor=strokeColor;html=1;" vertex="1" parent="1">
          <mxGeometry x="235" y="395" width="10" height="10" as="geometry" />
        </mxCell>
        <mxCell id="1GW1taVRN_NtOBX0cRz3-28" style="edgeStyle=orthogonalEdgeStyle;rounded=0;orthogonalLoop=1;jettySize=auto;html=1;exitX=1;exitY=0.5;exitDx=0;exitDy=0;exitPerimeter=0;strokeWidth=2;endArrow=blockThin;endFill=1;" edge="1" parent="1" source="1GW1taVRN_NtOBX0cRz3-16">
          <mxGeometry relative="1" as="geometry">
            <mxPoint x="680" y="400" as="targetPoint" />
          </mxGeometry>
        </mxCell>
        <mxCell id="1GW1taVRN_NtOBX0cRz3-16" value="" style="verticalLabelPosition=bottom;shadow=0;dashed=0;align=center;html=1;verticalAlign=top;shape=mxgraph.electrical.abstract.sum;strokeWidth=2;fillColor=none;" vertex="1" parent="1">
          <mxGeometry x="600" y="380" width="40" height="40" as="geometry" />
        </mxCell>
        <mxCell id="1GW1taVRN_NtOBX0cRz3-17" value="\(\mathbf{C}\)" style="whiteSpace=wrap;html=1;strokeWidth=2;fillColor=none;" vertex="1" parent="1">
          <mxGeometry x="520" y="380" width="40" height="40" as="geometry" />
        </mxCell>
        <mxCell id="1GW1taVRN_NtOBX0cRz3-20" style="edgeStyle=orthogonalEdgeStyle;rounded=0;orthogonalLoop=1;jettySize=auto;html=1;exitX=1;exitY=0.5;exitDx=0;exitDy=0;entryX=0;entryY=0.5;entryDx=0;entryDy=0;entryPerimeter=0;strokeWidth=2;endArrow=blockThin;endFill=1;" edge="1" parent="1" source="1GW1taVRN_NtOBX0cRz3-17" target="1GW1taVRN_NtOBX0cRz3-16">
          <mxGeometry relative="1" as="geometry" />
        </mxCell>
        <mxCell id="1GW1taVRN_NtOBX0cRz3-21" style="edgeStyle=orthogonalEdgeStyle;rounded=0;orthogonalLoop=1;jettySize=auto;html=1;exitX=1;exitY=0.5;exitDx=0;exitDy=0;entryX=0.5;entryY=0;entryDx=0;entryDy=0;entryPerimeter=0;strokeWidth=2;endArrow=blockThin;endFill=1;" edge="1" parent="1" source="1GW1taVRN_NtOBX0cRz3-9" target="1GW1taVRN_NtOBX0cRz3-16">
          <mxGeometry relative="1" as="geometry" />
        </mxCell>
        <mxCell id="1GW1taVRN_NtOBX0cRz3-22" value="&lt;font style=&quot;font-size: 13px;&quot;&gt;\(\mathbf{x}(t)\)&lt;/font&gt;" style="text;html=1;align=center;verticalAlign=middle;resizable=0;points=[];autosize=1;strokeColor=none;fillColor=none;strokeWidth=1;" vertex="1" parent="1">
          <mxGeometry x="445" y="369" width="110" height="30" as="geometry" />
        </mxCell>
        <mxCell id="1GW1taVRN_NtOBX0cRz3-23" value="" style="endArrow=blockThin;html=1;rounded=0;strokeWidth=2;entryX=0.5;entryY=1;entryDx=0;entryDy=0;entryPerimeter=0;endFill=1;exitX=0;exitY=0.5;exitDx=0;exitDy=0;" edge="1" parent="1" source="1GW1taVRN_NtOBX0cRz3-26" target="1GW1taVRN_NtOBX0cRz3-4">
          <mxGeometry width="50" height="50" relative="1" as="geometry">
            <mxPoint x="620" y="400" as="sourcePoint" />
            <mxPoint x="380" y="480" as="targetPoint" />
            <Array as="points">
              <mxPoint x="380" y="460" />
            </Array>
          </mxGeometry>
        </mxCell>
        <mxCell id="1GW1taVRN_NtOBX0cRz3-25" value="" style="ellipse;fillColor=strokeColor;html=1;" vertex="1" parent="1">
          <mxGeometry x="575" y="395" width="10" height="10" as="geometry" />
        </mxCell>
        <mxCell id="1GW1taVRN_NtOBX0cRz3-27" value="" style="endArrow=blockThin;html=1;rounded=0;strokeWidth=2;entryX=1;entryY=0.5;entryDx=0;entryDy=0;endFill=1;" edge="1" parent="1" target="1GW1taVRN_NtOBX0cRz3-26">
          <mxGeometry width="50" height="50" relative="1" as="geometry">
            <mxPoint x="580" y="400" as="sourcePoint" />
            <mxPoint x="500" y="480" as="targetPoint" />
            <Array as="points">
              <mxPoint x="580" y="460" />
            </Array>
          </mxGeometry>
        </mxCell>
        <mxCell id="1GW1taVRN_NtOBX0cRz3-26" value="\(\mathbf{A}\)" style="whiteSpace=wrap;html=1;strokeWidth=2;fillColor=none;" vertex="1" parent="1">
          <mxGeometry x="440" y="440" width="40" height="40" as="geometry" />
        </mxCell>
        <mxCell id="1GW1taVRN_NtOBX0cRz3-30" value="\(\mathbf{u}(t)\)" style="text;html=1;align=center;verticalAlign=middle;resizable=0;points=[];autosize=1;strokeColor=none;fillColor=none;" vertex="1" parent="1">
          <mxGeometry x="130" y="385" width="100" height="30" as="geometry" />
        </mxCell>
        <mxCell id="1GW1taVRN_NtOBX0cRz3-31" value="\(\mathbf{y}(t)\)" style="text;html=1;align=center;verticalAlign=middle;resizable=0;points=[];autosize=1;strokeColor=none;fillColor=none;" vertex="1" parent="1">
          <mxGeometry x="650" y="385" width="100" height="30" as="geometry" />
        </mxCell>
      </root>
    </mxGraphModel>
  </diagram>
</mxfile>
